<svg xmlns="http://www.w3.org/2000/svg" xmlns:xlink="http://www.w3.org/1999/xlink" preserveAspectRatio="xMidYMid" width="300" height="300" viewBox="0 0 300 300">
  <defs>
    <style>
      .cls-1 {
        fill: #00613c;
        fill-rule: evenodd;
      }
    </style>
  </defs>
  <path d="M151.000,290.001 C74.356,290.001 11.999,227.647 11.999,151.000 C11.999,74.356 74.356,11.999 151.000,11.999 C227.647,11.999 290.001,74.356 290.001,151.000 C290.001,227.647 227.647,290.001 151.000,290.001 ZM151.000,21.658 C79.681,21.658 21.658,79.681 21.658,151.000 C21.658,222.321 79.681,280.345 151.000,280.345 C222.321,280.345 280.345,222.321 280.345,151.000 C280.345,79.681 222.321,21.658 151.000,21.658 ZM151.000,270.934 C84.763,270.934 31.067,217.238 31.067,151.000 C31.067,84.763 84.763,31.067 151.000,31.067 C217.238,31.067 270.934,84.763 270.934,151.000 C270.934,217.238 217.238,270.934 151.000,270.934 ZM190.543,230.463 L200.950,230.463 L204.838,226.418 L190.421,225.541 C189.894,226.262 189.654,226.976 189.654,227.692 C189.611,228.926 190.224,229.951 190.543,230.463 ZM219.151,174.948 C218.460,175.562 218.055,176.280 217.890,177.151 C217.608,178.792 218.300,180.585 218.705,181.458 L238.501,188.480 C238.827,187.300 238.991,186.124 238.991,184.894 C238.991,184.276 238.949,183.662 238.868,183.046 L219.151,174.948 ZM238.605,181.303 C238.200,179.664 237.470,178.177 236.458,176.897 C234.839,174.792 232.128,172.844 228.320,170.949 L220.225,167.102 C219.736,167.669 219.170,168.488 218.968,169.615 C218.723,170.744 218.888,172.076 219.453,173.460 L238.605,181.303 ZM169.438,217.891 C169.518,217.168 169.758,216.508 170.163,215.894 L147.208,213.379 C143.522,212.968 140.121,217.276 139.272,220.661 L170.935,222.711 C170.083,221.477 169.278,219.737 169.438,217.891 ZM176.442,214.701 C175.792,213.728 175.148,212.396 175.148,210.910 C175.105,209.780 175.430,208.703 176.116,207.730 L156.805,204.501 C153.199,203.887 149.677,208.859 149.192,211.523 L176.442,214.701 ZM173.364,222.890 L195.232,224.273 C194.864,223.247 194.583,222.020 194.705,220.685 C194.785,219.916 194.944,219.250 195.232,218.587 L172.596,216.121 C171.706,216.739 171.218,217.401 171.138,218.170 C170.935,219.916 172.756,222.174 173.406,222.842 L173.364,222.890 ZM201.426,213.891 C201.548,213.223 201.750,212.661 202.032,212.097 L178.146,208.099 L178.221,208.200 C177.293,209.024 176.809,209.944 176.846,210.867 C176.846,212.611 178.465,214.353 179.073,214.867 L178.993,215.024 L201.788,217.634 C201.426,216.562 201.223,215.226 201.426,213.891 ZM210.416,199.424 C210.538,198.912 210.736,198.448 210.981,198.038 L185.752,191.939 C184.622,192.964 184.057,194.040 184.015,195.119 C184.015,196.962 185.634,198.705 186.279,199.218 L186.199,199.373 L210.821,204.036 C210.374,202.704 210.006,201.012 210.416,199.424 ZM213.135,192.011 C213.259,191.345 213.499,190.783 213.861,190.271 L188.759,182.733 C187.465,183.657 186.735,184.683 186.651,185.862 C186.449,188.013 188.189,190.322 189.000,191.141 L213.701,197.189 C213.173,195.754 212.689,193.807 213.135,192.011 ZM214.827,184.854 C214.986,183.830 215.433,182.906 216.040,182.136 L188.787,172.552 C187.818,173.217 187.291,174.038 187.088,175.064 C186.765,176.959 187.733,179.420 188.627,181.011 L215.269,189.058 C214.863,187.929 214.543,186.392 214.827,184.854 ZM216.257,176.675 C216.421,175.753 216.742,174.933 217.269,174.214 L189.532,162.836 C188.966,163.143 187.912,163.862 187.550,165.194 C187.103,166.629 187.427,168.525 188.477,170.779 L216.582,180.724 C216.257,179.545 216.012,178.112 216.257,176.675 ZM205.073,206.387 C205.153,205.722 205.398,205.105 205.681,204.593 L183.125,200.339 C182.198,201.108 181.186,202.287 181.267,203.568 C181.304,205.261 183.125,206.746 183.818,207.159 L183.737,207.310 L205.723,211.104 C205.195,209.770 204.749,208.029 205.073,206.387 ZM180.697,206.789 C180.085,205.970 179.638,204.944 179.558,203.714 C179.520,202.379 179.924,201.098 180.857,199.918 L165.795,197.100 C162.674,196.486 159.516,200.534 159.233,203.098 L180.697,206.789 ZM166.703,195.884 L168.280,195.985 L183.507,198.858 C182.900,197.883 182.330,196.549 182.373,195.116 C182.373,193.781 182.777,192.550 183.671,191.423 L159.698,185.578 C160.022,187.732 161.319,192.089 166.703,195.884 ZM161.229,184.375 L186.176,190.477 C185.442,189.196 184.754,187.453 184.961,185.659 C185.084,184.324 185.606,183.093 186.538,182.068 L152.769,171.917 C153.496,174.789 155.562,180.120 161.229,184.375 ZM156.410,171.309 L186.331,180.331 C185.644,178.639 185.116,176.589 185.442,174.641 C185.644,173.565 186.048,172.592 186.693,171.822 L147.824,158.185 C148.392,161.109 150.253,166.388 156.410,171.309 ZM152.813,158.177 L186.298,170.017 C185.574,167.917 185.489,166.018 185.978,164.380 C186.260,163.301 186.825,162.533 187.390,161.970 L144.593,144.438 C145.363,147.720 147.509,154.484 152.813,158.177 ZM150.942,145.419 L187.145,160.231 C186.575,158.385 186.533,156.696 186.981,155.156 C187.342,153.824 188.035,152.903 188.759,152.236 L141.630,129.938 C142.157,132.858 144.099,139.061 150.942,145.419 ZM188.528,155.913 C188.124,157.348 188.368,159.037 189.301,161.141 L217.401,172.624 C217.118,171.393 217.118,170.214 217.320,169.034 C217.561,167.907 218.007,166.983 218.493,166.319 L190.797,153.195 C190.148,153.552 188.976,154.375 188.528,155.913 ZM218.069,182.841 C217.175,183.508 216.647,184.327 216.450,185.302 C216.082,187.456 217.542,189.710 217.542,189.761 L234.952,194.991 C236.289,193.554 237.301,191.966 237.988,190.122 C238.030,190.018 238.073,189.967 238.073,189.866 L218.069,182.841 ZM215.885,190.890 C215.273,191.298 214.911,191.863 214.746,192.581 C214.341,194.273 215.315,196.632 215.843,197.707 L229.242,200.988 L233.780,196.272 L215.885,190.890 ZM213.089,198.577 C212.524,198.938 212.194,199.451 212.035,200.064 C211.672,201.450 212.360,203.344 212.886,204.424 L223.943,206.523 L228.028,202.218 L213.089,198.577 ZM207.869,205.036 C207.220,205.498 206.815,206.062 206.697,206.830 C206.411,208.372 207.262,210.420 207.827,211.445 L217.504,213.138 L222.649,207.808 L207.869,205.036 ZM204.094,212.420 C203.529,212.984 203.205,213.599 203.082,214.316 C202.880,215.595 203.365,217.032 203.731,217.854 L212.072,218.832 L216.242,214.469 L204.094,212.420 ZM197.245,218.832 C196.724,219.445 196.436,220.113 196.361,220.875 C196.239,222.210 196.766,223.593 197.208,224.415 L206.198,224.976 L210.731,220.263 L197.245,218.832 ZM166.925,230.463 L188.510,230.463 C188.185,229.694 187.940,228.724 187.940,227.644 C187.983,226.876 188.142,226.108 188.430,225.439 L165.955,224.056 C165.263,224.827 164.900,225.595 164.900,226.418 C164.900,227.954 166.114,229.594 166.925,230.463 ZM164.575,230.463 C163.847,229.391 163.202,228.002 163.202,226.465 C163.202,225.541 163.404,224.725 163.809,223.903 L138.058,222.364 C133.643,222.109 127.366,226.571 127.771,230.463 L164.575,230.463 ZM130.889,189.972 L163.282,195.714 L163.404,195.714 C158.989,191.561 158.099,187.202 157.937,185.152 L104.367,172.082 C109.428,184.589 117.081,187.562 130.889,189.972 ZM103.234,170.225 L157.167,183.398 C152.755,178.785 151.338,173.659 150.893,171.401 L83.433,151.103 C86.308,162.230 94.649,168.121 103.234,170.225 ZM88.697,150.884 L152.227,170.053 C147.573,165.029 146.316,160.057 145.994,157.546 L70.637,131.093 C73.997,142.525 80.479,148.423 88.697,150.884 ZM84.655,134.332 L148.300,156.594 C144.412,151.828 143.077,145.729 142.673,143.625 L82.387,118.957 C77.326,116.903 74.128,115.930 67.367,112.035 C69.391,123.669 76.152,131.308 84.655,134.332 ZM86.402,119.115 L146.601,143.640 C141.051,137.080 139.999,131.182 139.757,129.082 L79.346,100.485 C76.108,98.897 73.891,97.586 67.980,92.304 C68.547,106.557 76.807,115.168 86.402,119.115 ZM93.303,89.092 C86.177,85.556 75.930,78.021 73.339,73.968 C72.612,87.298 80.020,98.013 89.495,102.472 L140.971,126.911 C138.705,123.373 136.071,117.684 135.547,110.198 L93.303,89.092 ZM232.538,157.926 L154.889,119.719 C148.827,116.736 145.141,113.343 138.036,107.545 C137.300,120.207 144.548,127.633 146.047,129.325 L229.054,168.589 C233.103,170.539 236.059,172.743 237.880,175.049 C239.984,177.716 241.043,180.996 241.043,184.890 C241.043,187.096 240.633,189.199 239.824,191.298 C238.977,193.452 237.800,195.347 236.261,196.989 L204.109,230.463 L217.433,230.463 L241.970,204.116 C255.333,189.761 250.188,166.591 232.538,157.926 Z" class="cls-1"/>
</svg>
